<svg width="20" height="20" viewBox="0 0 20 20" fill="none" xmlns="http://www.w3.org/2000/svg">
<path d="M12.9084 7.7414L9.67508 10.9747L6.44174 7.7414C6.36459 7.66425 6.273 7.60305 6.1722 7.56129C6.07139 7.51954 5.96335 7.49805 5.85425 7.49805C5.74514 7.49805 5.6371 7.51954 5.53629 7.56129C5.43549 7.60305 5.3439 7.66425 5.26675 7.7414C5.18959 7.81855 5.12839 7.91014 5.08664 8.01094C5.04488 8.11175 5.02339 8.21979 5.02339 8.3289C5.02339 8.43801 5.04488 8.54605 5.08664 8.64685C5.12839 8.74765 5.18959 8.83925 5.26675 8.9164L9.09174 12.7414C9.16884 12.8187 9.26041 12.8799 9.36122 12.9218C9.46204 12.9636 9.5701 12.9851 9.67924 12.9851C9.78839 12.9851 9.89645 12.9636 9.99727 12.9218C10.0981 12.8799 10.1897 12.8187 10.2667 12.7414L14.0917 8.9164C14.169 8.8393 14.2303 8.74773 14.2721 8.64692C14.3139 8.54611 14.3354 8.43804 14.3354 8.3289C14.3354 8.21976 14.3139 8.11169 14.2721 8.01088C14.2303 7.91007 14.169 7.81849 14.0917 7.7414C13.7667 7.42473 13.2334 7.4164 12.9084 7.7414Z" fill="#233C7B"/>
</svg>
